<?xml version="1.0" encoding="UTF-8" standalone="no"?>
<!-- Created with Inkscape (http://www.inkscape.org/) -->

<svg
   width="8.4664488mm"
   height="8.2069702mm"
   viewBox="0 0 8.4664488 8.2069702"
   version="1.1"
   id="svg200"
   inkscape:version="1.2.2 (732a01da63, 2022-12-09, custom)"
   sodipodi:docname="logo.svg"
   xmlns:inkscape="http://www.inkscape.org/namespaces/inkscape"
   xmlns:sodipodi="http://sodipodi.sourceforge.net/DTD/sodipodi-0.dtd"
   xmlns="http://www.w3.org/2000/svg"
   xmlns:svg="http://www.w3.org/2000/svg">
  <sodipodi:namedview
     id="namedview202"
     pagecolor="#ffffff"
     bordercolor="#666666"
     borderopacity="1.0"
     inkscape:showpageshadow="2"
     inkscape:pageopacity="0.0"
     inkscape:pagecheckerboard="0"
     inkscape:deskcolor="#d1d1d1"
     inkscape:document-units="mm"
     showgrid="false"
     inkscape:zoom="19.02887"
     inkscape:cx="5.4916555"
     inkscape:cy="17.263242"
     inkscape:window-width="1722"
     inkscape:window-height="1056"
     inkscape:window-x="70"
     inkscape:window-y="27"
     inkscape:window-maximized="1"
     inkscape:current-layer="layer1" />
  <defs
     id="defs197" />
  <g
     inkscape:label="Layer 1"
     inkscape:groupmode="layer"
     id="layer1"
     transform="translate(-100.22004,-144.39733)">
    <path
       style="fill:#888888;stroke-width:0.00918414;fill-opacity:1.0"
       d="m 100.88793,152.59747 c -0.14058,-0.0154 -0.30481,-0.0853 -0.41557,-0.17687 -0.10806,-0.0893 -0.17718,-0.19125 -0.21882,-0.32271 -0.0491,-0.15517 -0.0465,-0.21743 0.023,-0.53276 0.0579,-0.26261 0.065,-0.29558 0.0999,-0.45921 0.0172,-0.0808 0.0442,-0.20687 0.0598,-0.28011 0.0157,-0.0733 0.0346,-0.1621 0.0421,-0.19746 0.008,-0.0354 0.0282,-0.13249 0.0461,-0.21583 0.08,-0.37398 0.14213,-0.69631 0.22037,-1.14343 0.0124,-0.0707 0.0237,-0.13234 0.0251,-0.13693 0.001,-0.005 0.0102,0.0119 0.0195,0.0367 0.0634,0.1695 0.17351,0.35519 0.28529,0.48134 0.12917,0.14576 0.25047,0.24077 0.41322,0.32365 0.22222,0.11316 0.40586,0.17201 0.53742,0.17223 l 0.0415,8e-5 -0.003,-0.10333 c -0.002,-0.0568 -0.005,-0.10848 -0.007,-0.1148 -0.002,-0.007 -0.0212,-0.0115 -0.0504,-0.0115 -0.10862,0 -0.28711,-0.0566 -0.40774,-0.1294 -0.0328,-0.0198 -0.0618,-0.0359 -0.0645,-0.0359 -0.003,0 -0.0391,-0.0244 -0.0809,-0.0542 -0.13,-0.0929 -0.26996,-0.24052 -0.33802,-0.35648 -0.0943,-0.1607 -0.16051,-0.32947 -0.19309,-0.49248 -0.017,-0.0849 -0.0193,-0.12075 -0.0155,-0.24338 0.005,-0.15823 0.0236,-0.26061 0.0727,-0.39638 0.13047,-0.36057 0.43387,-0.65701 0.78835,-0.77027 0.1593,-0.0509 0.22713,-0.0609 0.4087,-0.06 0.14338,6.7e-4 0.17956,0.004 0.27272,0.0249 0.0591,0.0133 0.13295,0.0328 0.16416,0.0433 0.12613,0.0425 0.28486,0.13632 0.39887,0.2358 0.0253,0.022 0.0734,0.0596 0.10691,0.0834 0.0335,0.0238 0.11018,0.0811 0.17031,0.12716 0.0601,0.0461 0.13199,0.0966 0.15969,0.11223 l 0.0504,0.0284 0.95489,0.003 0.9549,0.003 0.0529,-0.03 c 0.0291,-0.0165 0.0725,-0.0443 0.0964,-0.0618 0.0753,-0.0551 0.19308,-0.145 0.26193,-0.20007 0.0365,-0.0292 0.0861,-0.0684 0.11036,-0.0872 0.0242,-0.0188 0.0573,-0.0449 0.0735,-0.058 0.0785,-0.0635 0.23513,-0.139 0.35808,-0.17264 0.15639,-0.0428 0.21854,-0.0513 0.37394,-0.051 0.37481,6.8e-4 0.68587,0.13289 0.92156,0.3917 0.2767,0.30384 0.39825,0.7156 0.32194,1.09064 -0.0861,0.42312 -0.33555,0.7612 -0.69729,0.94499 -0.12045,0.0612 -0.21078,0.0892 -0.374,0.11592 l -0.0344,0.006 v 0.10979 0.10979 h 0.0323 c 0.0998,0 0.31441,-0.0674 0.48259,-0.15166 0.16551,-0.0829 0.24662,-0.14103 0.37703,-0.27039 0.18403,-0.18254 0.29747,-0.37502 0.34397,-0.58361 0.005,-0.0236 0.01,-0.0138 0.0316,0.0689 0.0264,0.0998 0.0665,0.29097 0.10135,0.48217 0.0275,0.1508 0.0666,0.3479 0.10406,0.5235 0.0172,0.0808 0.0563,0.2668 0.0869,0.41328 0.0971,0.46532 0.15545,0.73791 0.20447,0.95516 0.0428,0.18966 0.0477,0.22248 0.048,0.32144 2.6e-4,0.0989 -0.003,0.11824 -0.027,0.18863 -0.0535,0.15379 -0.1419,0.27475 -0.26482,0.36246 -0.0665,0.0474 -0.2064,0.11061 -0.28575,0.12901 -0.0788,0.0183 -0.28957,0.0182 -0.3943,-1e-4 -0.14104,-0.0247 -0.38371,-0.12563 -0.47299,-0.19679 -0.0177,-0.0141 -0.0425,-0.031 -0.0551,-0.0376 -0.0433,-0.0226 -0.17608,-0.15029 -0.23015,-0.22132 -0.0624,-0.082 -0.15219,-0.24934 -0.19859,-0.37023 -0.0177,-0.046 -0.0424,-0.11053 -0.055,-0.14337 -0.0777,-0.20267 -0.12395,-0.28799 -0.19066,-0.35195 -0.056,-0.0537 -0.15241,-0.11902 -0.2133,-0.14455 -0.0245,-0.0103 -0.0514,-0.0224 -0.0598,-0.0271 -0.008,-0.005 -0.0426,-0.0134 -0.0758,-0.0195 -0.0332,-0.006 -0.0604,-0.0138 -0.0604,-0.017 0,-0.003 0.0274,-0.0179 0.0609,-0.0324 0.18563,-0.0808 0.34723,-0.26824 0.39182,-0.45442 0.0319,-0.13324 0.0267,-0.30954 -0.0126,-0.42172 -0.0687,-0.1965 -0.25092,-0.37425 -0.44601,-0.43511 -0.0844,-0.0263 -0.23451,-0.0468 -0.28497,-0.0388 -0.11784,0.0187 -0.1584,0.0281 -0.22009,0.0511 -0.15143,0.0565 -0.29907,0.19062 -0.36649,0.33295 -0.0903,0.19064 -0.10391,0.35485 -0.0439,0.52993 0.0311,0.0906 0.0561,0.13918 0.10814,0.20983 0.0236,0.0321 0.0415,0.0597 0.0398,0.0615 -0.009,0.009 -0.60502,0.0271 -0.88437,0.0267 -0.34985,-5e-4 -0.923,-0.0134 -0.923,-0.0207 0,-0.003 0.0167,-0.0189 0.0371,-0.0363 0.043,-0.0368 0.0969,-0.11373 0.13014,-0.18585 0.0787,-0.17069 0.0872,-0.32326 0.0285,-0.50972 -0.0644,-0.20454 -0.24191,-0.37979 -0.45898,-0.45326 -0.13401,-0.0453 -0.33126,-0.0445 -0.44974,0.002 -0.13868,0.0543 -0.17983,0.0805 -0.2697,0.17162 -0.1026,0.10399 -0.13508,0.1551 -0.17912,0.28186 -0.0725,0.20852 -0.047,0.41273 0.0746,0.59942 0.0886,0.13601 0.19909,0.22267 0.3879,0.30426 l 0.0308,0.0133 -0.0905,0.022 c -0.19795,0.0481 -0.34465,0.14315 -0.43541,0.28209 -0.0378,0.0578 -0.0723,0.13724 -0.18071,0.41616 -0.0364,0.0935 -0.11871,0.25332 -0.16883,0.3276 -0.12499,0.18523 -0.35529,0.35168 -0.60891,0.44011 -0.15134,0.0528 -0.33145,0.0745 -0.48149,0.058 z m 6.33079,-0.78489 0.0956,-0.051 -0.0394,-0.0844 c -0.0217,-0.0464 -0.0584,-0.12369 -0.0815,-0.17168 -0.0231,-0.048 -0.0757,-0.16164 -0.1168,-0.25256 -0.0411,-0.0909 -0.0786,-0.16919 -0.0832,-0.17392 -0.005,-0.005 -0.0164,-0.001 -0.0292,0.0102 -0.0114,0.0104 -0.0508,0.0364 -0.0874,0.0579 -0.0366,0.0215 -0.0666,0.0418 -0.0666,0.0452 0,0.009 0.0567,0.14018 0.10567,0.24435 0.0238,0.0505 0.0536,0.11457 0.0664,0.14236 0.0284,0.0618 0.0892,0.19282 0.11423,0.24567 0.0102,0.0215 0.0203,0.039 0.0226,0.039 0.002,0 0.0471,-0.023 0.0997,-0.051 z m -2.24531,-1.79957 v -0.10562 h -0.51431 -0.51431 v 0.0995 c 0,0.0547 0.003,0.10225 0.006,0.10562 0.003,0.003 0.23481,0.006 0.51431,0.006 h 0.50819 z m 0.15425,-0.52809 c 10e-4,-0.0429 3.8e-4,-0.0874 -0.002,-0.0987 l -0.005,-0.0207 h -0.50495 -0.50496 v 0.10111 0.1011 l 0.50743,-0.002 0.50742,-0.002 z m 1.80598,-0.0688 c 0.03,-0.008 0.0722,-0.0275 0.0939,-0.0424 l 0.0394,-0.0271 0.003,-0.14437 0.003,-0.14437 0.17232,-0.002 0.17232,-0.002 -0.002,-0.32813 -0.002,-0.32814 -0.16738,-0.002 -0.16738,-0.002 -0.003,-0.14444 -0.003,-0.14445 -0.0597,-0.0299 c -0.10289,-0.0516 -0.257,-0.0696 -0.40823,-0.0477 -0.0615,0.009 -0.13831,0.0392 -0.19104,0.0754 l -0.0252,0.0173 v 0.13693 0.13694 l -0.17221,0.002 -0.1722,0.002 -0.001,0.32813 -10e-4,0.32814 0.17123,0.002 0.17122,0.002 0.003,0.13759 0.003,0.13759 0.0289,0.0298 c 0.0296,0.0305 0.0841,0.0532 0.16128,0.0672 0.0688,0.0125 0.29247,0.004 0.35517,-0.0139 z m -0.0958,-0.22355 c 0,-0.008 -0.0357,-0.0107 -0.12436,-0.0107 h -0.12436 l 0.003,-0.0751 0.003,-0.0751 0.0682,-0.0413 0.0682,-0.0413 0.0581,0.031 c 0.0645,0.0344 0.0613,0.0266 0.0601,0.14993 -3.6e-4,0.0346 -0.003,0.0652 -0.006,0.0681 -0.003,0.003 -0.005,4.5e-4 -0.005,-0.005 z m -0.56942,-0.46993 v -0.11021 h 0.11939 0.1194 v 0.11021 0.11021 h -0.1194 -0.11939 z m 0.67963,0.005 v -0.10561 h 0.12398 0.12399 v 0.10561 0.10562 h -0.12399 -0.12398 z m -0.33063,-0.34787 c 0,-0.0759 0.003,-0.0978 0.0146,-0.10742 0.009,-0.007 0.047,-0.0136 0.0941,-0.0158 0.071,-0.003 0.0822,-0.002 0.1048,0.0162 0.0245,0.0194 0.0253,0.0227 0.0253,0.11116 v 0.0912 h -0.1194 -0.11939 z m -4.13494,0.72213 0.003,-0.14924 h 0.1605 0.16049 v -0.30287 -0.30286 l -0.16302,-0.003 -0.16302,-0.003 -0.003,-0.15383 -0.003,-0.15384 h -0.28886 -0.28886 l -0.003,0.15384 -0.003,0.15383 -0.16302,0.003 -0.16302,0.003 v 0.30286 0.30287 h 0.16531 0.16532 v 0.15166 0.15167 l 0.2916,-0.002 0.29159,-0.002 z m -0.40204,-0.20435 v -0.13776 h -0.15154 -0.15153 v -0.1148 -0.1148 h 0.15153 0.15154 v -0.14695 -0.14695 h 0.10562 0.10562 v 0.14695 0.14695 h 0.15154 0.15154 v 0.1148 0.1148 h -0.15154 -0.15154 v 0.13776 0.13776 h -0.10562 -0.10562 z m 3.35681,0.14236 v -0.0918 l -0.30996,-0.002 -0.30997,-0.002 v 0.0918 0.0918 l 0.24109,0.003 c 0.13259,0.002 0.27208,0.003 0.30996,0.002 l 0.0689,-3.3e-4 z m -1.37303,-0.005 v -0.092 l -0.30537,0.002 -0.30538,0.002 -0.003,0.0895 -0.003,0.0896 h 0.308 0.308 z m 0.15482,-0.35739 c 0.0557,-0.0284 0.0607,-0.0391 0.0399,-0.0851 -0.01,-0.0218 -0.041,-0.0768 -0.0693,-0.12223 -0.0283,-0.0455 -0.0671,-0.1084 -0.0862,-0.13986 l -0.0347,-0.0572 -0.23135,-2.1e-4 c -0.12725,-1e-4 -0.23333,0.003 -0.23574,0.007 -0.002,0.004 0.008,0.0529 0.0236,0.10897 l 0.028,0.10188 0.1435,-0.004 0.1435,-0.004 0.0314,0.0585 c 0.0173,0.0322 0.0451,0.0802 0.0619,0.10667 l 0.0305,0.0482 h 0.0602 c 0.0413,0 0.0711,-0.006 0.0949,-0.0177 z m 0.6644,-0.0466 c 0.0192,-0.0328 0.0454,-0.0797 0.0584,-0.10417 l 0.0236,-0.0445 0.14774,0.003 0.14773,0.003 0.0178,-0.0824 c 0.01,-0.0453 0.02,-0.0938 0.0226,-0.10766 l 0.005,-0.0253 h -0.23555 -0.23555 l -0.0203,0.0344 c -0.0112,0.0189 -0.0266,0.0457 -0.0341,0.0595 -0.008,0.0138 -0.0438,0.0764 -0.0804,0.13924 -0.0366,0.0628 -0.0666,0.12255 -0.0666,0.13275 0,0.0285 0.0807,0.0565 0.15571,0.054 l 0.0593,-0.002 z m 0.91638,2.23198 c -0.0629,-0.008 -0.13486,-0.0316 -0.18828,-0.0615 -0.0905,-0.0506 -0.20121,-0.20564 -0.22379,-0.31346 -0.0241,-0.11517 -0.004,-0.25612 0.0507,-0.3493 0.0621,-0.10647 0.19272,-0.20668 0.30102,-0.23095 0.0645,-0.0145 0.19485,-0.0123 0.25729,0.004 0.17755,0.0471 0.3228,0.20327 0.35463,0.38122 0.011,0.0613 0.006,0.15786 -0.0107,0.22502 -0.0212,0.0834 -0.12531,0.22055 -0.20988,0.27651 -0.0793,0.0525 -0.22298,0.0821 -0.33098,0.0681 z m -2.88571,-0.21376 -0.002,-0.16761 -0.1745,-0.005 -0.1745,-0.005 -0.003,-0.0964 c -0.004,-0.14709 -0.0228,-0.13317 0.17907,-0.13317 h 0.17261 l 0.005,-0.16991 0.005,-0.1699 0.1171,-0.003 0.1171,-0.003 v 0.1692 c 0,0.15014 0.002,0.16986 0.0155,0.17513 0.009,0.003 0.086,0.006 0.1722,0.005 0.0862,-4.2e-4 0.16235,-5.8e-4 0.16921,-3.6e-4 0.01,3.1e-4 0.0118,0.0212 0.009,0.10371 -0.002,0.0568 -0.007,0.10849 -0.0107,0.1148 -0.005,0.009 -0.0521,0.0115 -0.18125,0.0115 h -0.17396 v 0.16991 0.1699 h -0.11919 -0.11918 z m 1.15011,-3.2443 v -0.4087 h 0.0918 0.0918 v -0.0859 -0.0859 l -0.0895,-0.006 c -0.0493,-0.003 -0.2187,-0.006 -0.37655,-0.006 l -0.28701,-4e-5 -1.4e-4,-0.36508 c -7e-5,-0.20078 -0.003,-0.36921 -0.007,-0.37427 -0.004,-0.005 -0.0315,-0.0278 -0.0618,-0.0504 -0.0561,-0.042 -0.0851,-0.0665 -0.29146,-0.24685 l -0.11696,-0.1022 -0.15397,2.3e-4 -0.15397,2.3e-4 -0.0309,0.0642 c -0.0347,0.0719 -0.0707,0.10555 -0.15426,0.14409 -0.0773,0.0356 -0.1703,0.0352 -0.24421,-0.001 -0.18804,-0.0925 -0.23741,-0.30929 -0.10914,-0.47918 0.049,-0.065 0.14589,-0.11409 0.22462,-0.11396 0.13554,2.4e-4 0.23205,0.0605 0.29066,0.1815 l 0.0277,0.0572 h 0.17741 0.17742 l 0.05,0.0423 c 0.0275,0.0233 0.0582,0.0516 0.0683,0.0629 0.0101,0.0113 0.063,0.0574 0.11743,0.10236 0.15128,0.12484 0.17262,0.14144 0.18177,0.14144 0.005,0 0.008,-0.14687 0.008,-0.36132 v -0.36132 l -0.10402,-0.10905 -0.10402,-0.10906 -0.0455,0.0292 c -0.16902,0.10846 -0.40667,0.0239 -0.46408,-0.16507 -0.0494,-0.16253 0.0286,-0.32596 0.18309,-0.38396 0.0721,-0.0271 0.18004,-0.0229 0.24353,0.009 0.11121,0.0564 0.17077,0.14768 0.17422,0.26693 10e-4,0.0377 -0.001,0.0788 -0.005,0.0915 -0.006,0.0206 0.009,0.0396 0.15252,0.18823 l 0.15944,0.16528 0.247,-0.0823 c 0.13585,-0.0453 0.28372,-0.0959 0.3286,-0.11247 0.0449,-0.0166 0.0852,-0.0302 0.0895,-0.0302 0.004,0 0.009,0.19528 0.0102,0.43396 l 0.002,0.43395 h 0.0873 0.0872 l 0.002,-0.43804 0.002,-0.43804 0.0338,0.0141 c 0.0486,0.0203 0.59981,0.20604 0.62741,0.21141 0.0201,0.004 0.0439,-0.0168 0.18074,-0.15696 l 0.1576,-0.16146 -0.01,-0.0594 c -0.0122,-0.0734 -5e-5,-0.14317 0.0353,-0.20352 0.0306,-0.0522 0.11271,-0.1179 0.17207,-0.13764 0.0617,-0.0205 0.17999,-0.0139 0.23202,0.0129 0.0544,0.0281 0.11743,0.0948 0.1473,0.15585 0.0217,0.0443 0.0258,0.0644 0.0259,0.12619 1.6e-4,0.0937 -0.0269,0.15579 -0.0974,0.22378 -0.10136,0.0977 -0.26235,0.1106 -0.38817,0.0312 l -0.0375,-0.0237 -0.10348,0.10899 -0.10348,0.10899 v 0.36033 c 0,0.19817 0.003,0.36228 0.007,0.36469 0.004,0.002 0.0401,-0.0244 0.0804,-0.0595 0.0403,-0.0351 0.096,-0.0812 0.12381,-0.10242 0.0278,-0.0212 0.0872,-0.0727 0.13206,-0.11448 l 0.0816,-0.0759 h 0.18143 0.18143 l 0.0213,-0.0528 c 0.0915,-0.22654 0.41314,-0.25119 0.54129,-0.0415 0.0596,0.0975 0.0682,0.16331 0.0349,0.26505 -0.0417,0.12695 -0.15731,0.21008 -0.29226,0.2101 -0.0589,1e-5 -0.0777,-0.004 -0.12969,-0.0296 -0.0767,-0.0374 -0.1137,-0.0743 -0.14713,-0.14691 l -0.0264,-0.0574 h -0.15174 -0.15175 l -0.097,0.085 c -0.0534,0.0467 -0.11054,0.0953 -0.12704,0.10792 -0.0165,0.0126 -0.0676,0.054 -0.11357,0.0918 -0.046,0.0379 -0.0961,0.0785 -0.11145,0.0902 l -0.0279,0.0214 -2e-5,0.13476 c -1e-5,0.0741 -0.003,0.24326 -0.006,0.37586 l -0.006,0.24108 h -0.28323 -0.28323 v 0.49594 0.49595 h -0.39033 -0.39033 z m 0.65208,-1.05618 v -0.17909 h 0.22501 0.22501 v -0.0919 -0.0918 h -0.31685 -0.31686 v 0.27094 0.27093 h 0.0918 0.0918 z m -0.45921,-0.27094 v -0.0918 h -0.25716 -0.25715 v 0.0918 0.0919 h 0.25715 0.25716 z m -1.7669,-0.3787 c 0.042,-0.0368 0.0618,-0.0816 0.0535,-0.12049 -0.0164,-0.0761 -0.0547,-0.10696 -0.13259,-0.10696 -0.0592,0 -0.0944,0.0181 -0.11356,0.0584 -0.0333,0.0702 -0.0105,0.1531 0.0504,0.18307 0.0519,0.0256 0.10294,0.0205 0.14229,-0.014 z m 4.06662,0.0169 c 0.10536,-0.044 0.10401,-0.1912 -0.002,-0.23909 -0.044,-0.0198 -0.0857,-0.0148 -0.13118,0.0159 -0.0426,0.0287 -0.0554,0.0571 -0.0513,0.11438 0.007,0.0929 0.0963,0.14576 0.18469,0.10881 z m -3.40986,-0.90046 c 0.0351,-0.0238 0.0631,-0.0718 0.0631,-0.10791 0,-0.0377 -0.0389,-0.10122 -0.0735,-0.1199 -0.0507,-0.0274 -0.12266,-0.0172 -0.16305,0.0232 -0.0327,0.0328 -0.0469,0.0841 -0.0356,0.12928 0.007,0.0287 0.0487,0.0786 0.0739,0.0888 0.0394,0.016 0.10074,0.01 0.13506,-0.0135 z m 2.76303,-3.7e-4 c 0.017,-0.0125 0.0384,-0.0342 0.0476,-0.0482 0.0343,-0.052 0.012,-0.13417 -0.0474,-0.17468 -0.0599,-0.0409 -0.15895,-0.0181 -0.1903,0.0439 -0.0156,0.0309 -0.0147,0.10512 0.002,0.13682 0.0331,0.064 0.12948,0.0856 0.18836,0.0422 z"
       id="path195" />
  </g>
</svg>
